<svg width="243" height="242" viewBox="0 0 243 242" fill="none" xmlns="http://www.w3.org/2000/svg">
<path d="M113.566 212.891L110.314 234.465L97.3775 232.515L97.7269 230.198L108.051 231.754L109.149 224.464L99.7948 223.054L100.144 220.737L109.499 222.146L110.953 212.497L113.566 212.891Z" fill="black"/>
<path d="M113.566 212.891L110.314 234.465L97.3775 232.515L97.7269 230.198L108.051 231.754L109.149 224.464L99.7948 223.054L100.144 220.737L109.499 222.146L110.953 212.497L113.566 212.891Z" fill="black"/>
<path d="M87.5317 206.906L78.0651 226.563L71.423 223.365C69.8873 222.625 68.753 221.756 68.0203 220.756C67.2845 219.763 66.8986 218.699 66.8626 217.562C66.8267 216.425 67.0876 215.278 67.6454 214.12C68.2031 212.961 68.9345 212.048 69.8394 211.381C70.7444 210.713 71.8096 210.359 73.0352 210.318C74.2577 210.284 75.6304 210.634 77.1533 211.367L82.5284 213.956L81.493 216.106L76.1947 213.554C75.1453 213.049 74.2267 212.796 73.4389 212.795C72.6446 212.791 71.968 213.001 71.4088 213.425C70.8402 213.853 70.3664 214.46 69.9874 215.248C69.6084 216.035 69.4243 216.793 69.4351 217.524C69.446 218.254 69.6975 218.935 70.1897 219.566C70.6788 220.204 71.4545 220.778 72.5167 221.29L76.7016 223.305L85.1513 205.759L87.5317 206.906ZM74.0263 211.28L73.4412 200.12L76.2056 201.451L76.7138 212.575L74.0263 211.28Z" fill="black"/>
<path d="M43.7665 189.551C45.3316 187.864 46.9888 186.689 48.738 186.025C50.4872 185.362 52.2021 185.189 53.8825 185.509C55.5629 185.828 57.0852 186.62 58.4492 187.886C59.8133 189.151 60.7172 190.61 61.1609 192.262C61.6047 193.914 61.5611 195.637 61.0302 197.431C60.4993 199.225 59.4512 200.965 57.8861 202.652C56.3209 204.339 54.6637 205.514 52.9145 206.177C51.1653 206.841 49.4505 207.013 47.77 206.694C46.0896 206.375 44.5674 205.582 43.2033 204.317C41.8392 203.051 40.9353 201.592 40.4916 199.94C40.0478 198.289 40.0914 196.566 40.6223 194.772C41.1533 192.978 42.2013 191.238 43.7665 189.551ZM45.6408 191.29C44.3558 192.675 43.5029 194.058 43.0823 195.441C42.6564 196.819 42.6095 198.117 42.9416 199.336C43.2684 200.55 43.916 201.606 44.8844 202.505C45.8528 203.404 46.9571 203.973 48.1974 204.213C49.4324 204.448 50.7236 204.304 52.071 203.781C53.4132 203.254 54.7268 202.298 56.0118 200.913C57.2968 199.528 58.1522 198.146 58.5781 196.769C58.9987 195.386 59.0456 194.087 58.7188 192.873C58.3867 191.655 57.7365 190.596 56.7681 189.697C55.7997 188.799 54.698 188.232 53.463 187.997C52.2227 187.757 50.9315 187.901 49.5893 188.428C48.2419 188.951 46.9257 189.905 45.6408 191.29Z" fill="black"/>
<path d="M18.0408 169.986L36.9359 159.076L38.2143 161.291L29.3233 180.152L29.4298 180.337L44.2654 171.772L45.5864 174.06L26.6913 184.969L25.4129 182.755L34.3195 163.835L34.213 163.65L19.3405 172.237L18.0408 169.986Z" fill="black"/>
<path d="M14.3243 153.776L12.0393 154.297L8.39804 138.344L10.683 137.822L12.2097 144.511L31.1959 140.178L31.7838 142.753L12.7976 147.087L14.3243 153.776Z" fill="black"/>
<path d="M19.3028 108.575L21.64 108.75L20.9267 118.269L18.5895 118.094L19.3028 108.575Z" fill="black"/>
<path d="M33.2344 93.2744L12.9244 85.3033L17.7351 73.0459L19.9168 73.9022L16.0714 83.7002L22.934 86.3935L26.5303 77.2302L28.712 78.0865L25.1157 87.2498L32.0179 89.9587L35.9256 80.0021L38.1074 80.8583L33.2344 93.2744Z" fill="black"/>
<path d="M37.9027 42.8823L54.9608 56.4857L53.3667 58.4847L32.5606 57.0993L32.4277 57.2659L45.821 67.9467L44.1737 70.0123L27.1156 56.4089L28.7097 54.4099L49.5757 55.7886L49.7086 55.622L36.2819 44.9146L37.9027 42.8823Z" fill="black"/>
<path d="M68.1973 45.7783L62.6343 49.5711L50.3437 31.544L56.1532 27.5832C57.9019 26.3909 59.6443 25.7316 61.3805 25.6052C63.1126 25.4729 64.7684 25.8527 66.3477 26.7444C67.923 27.6302 69.3468 29.0062 70.619 30.8723C71.8993 32.7501 72.6671 34.5948 72.9223 36.4065C73.1735 38.2122 72.9075 39.9151 72.1244 41.5149C71.3372 43.1089 70.0282 44.53 68.1973 45.7783ZM63.497 46.1462L66.7362 43.9378C68.2267 42.9216 69.2659 41.7918 69.8538 40.5486C70.4417 39.3054 70.6142 37.9887 70.3713 36.5985C70.1283 35.2083 69.5067 33.7796 68.5065 32.3126C67.5143 30.8573 66.4224 29.7665 65.231 29.0401C64.0355 28.3079 62.7733 27.9822 61.4445 28.063C60.1116 28.1379 58.741 28.6555 57.3326 29.6157L53.8469 31.9922L63.497 46.1462Z" fill="black"/>
<path d="M119.779 29L113.046 29V7.18182L120.077 7.18182C122.193 7.18182 124.004 7.61861 125.51 8.49219C127.016 9.35866 128.17 10.6051 128.972 12.2315C129.775 13.8509 130.176 15.7898 130.176 18.0483C130.176 20.321 129.771 22.2777 128.962 23.9183C128.152 25.5518 126.973 26.8089 125.425 27.6896C123.877 28.5632 121.994 29 119.779 29ZM115.688 26.6562L119.608 26.6563C121.412 26.6563 122.907 26.3082 124.093 25.6122C125.279 24.9162 126.164 23.9254 126.746 22.6399C127.328 21.3544 127.619 19.8239 127.619 18.0483C127.619 16.2869 127.332 14.7706 126.757 13.4993C126.181 12.2209 125.322 11.2408 124.178 10.5589C123.035 9.87003 121.611 9.52557 119.906 9.52557H115.688V26.6562Z" fill="black"/>
<path d="M142.26 31.2236L148.691 10.3748L161.274 14.256L160.583 16.4956L150.525 13.3931L148.352 20.4378L157.759 23.3393L157.068 25.5789L147.661 22.6774L145.476 29.7628L155.697 32.9155L155.006 35.1551L142.26 31.2236Z" fill="black"/>
<path d="M180.261 23.5228L175.266 42.3467L175.478 42.4907L191.176 30.9644L193.464 32.5247L174.554 46.0388L172.301 44.5025L177.972 21.9625L180.261 23.5228Z" fill="black"/>
<path d="M189.171 58.6956L206.229 45.0922L214.439 55.387L212.607 56.8483L206.044 48.6191L200.28 53.2156L206.418 60.9117L204.585 62.373L198.448 54.6769L192.651 59.2999L199.32 67.6624L197.487 69.1237L189.171 58.6956Z" fill="black"/>
<path d="M204.89 82.4592L225.2 74.4881L226.166 76.9475L208.037 84.0623L211.743 93.5033L209.561 94.3595L204.89 82.4592Z" fill="black"/>
<path d="M224.563 123.407C222.268 123.579 220.254 123.313 218.52 122.609C216.787 121.906 215.413 120.866 214.398 119.489C213.383 118.112 212.806 116.496 212.667 114.64C212.528 112.785 212.858 111.101 213.656 109.588C214.454 108.075 215.658 106.842 217.267 105.888C218.877 104.934 220.829 104.371 223.123 104.199C225.418 104.027 227.432 104.293 229.166 104.996C230.899 105.7 232.273 106.74 233.288 108.117C234.303 109.494 234.88 111.11 235.019 112.965C235.158 114.821 234.829 116.505 234.03 118.018C233.232 119.531 232.028 120.764 230.419 121.718C228.81 122.672 226.857 123.235 224.563 123.407ZM224.372 120.857C226.256 120.716 227.822 120.281 229.071 119.554C230.32 118.834 231.238 117.914 231.823 116.794C232.409 115.682 232.653 114.467 232.554 113.15C232.456 111.833 232.033 110.664 231.288 109.645C230.542 108.632 229.498 107.859 228.155 107.326C226.812 106.8 225.198 106.608 223.314 106.749C221.431 106.89 219.864 107.321 218.615 108.041C217.366 108.769 216.448 109.688 215.862 110.801C215.276 111.92 215.033 113.138 215.132 114.456C215.23 115.773 215.652 116.938 216.398 117.95C217.144 118.97 218.188 119.743 219.531 120.269C220.874 120.802 222.488 120.998 224.372 120.857Z" fill="black"/>
<path d="M212.409 134.765L233.68 139.62L232.04 146.807C231.659 148.476 231.046 149.771 230.202 150.693C229.363 151.624 228.376 152.229 227.241 152.509C226.107 152.789 224.913 152.786 223.659 152.5C222.406 152.214 221.326 151.698 220.418 150.952C219.508 150.212 218.87 149.243 218.502 148.045C218.142 146.848 218.15 145.422 218.528 143.767L219.704 138.615L221.989 139.137L220.832 144.206C220.571 145.348 220.559 146.311 220.796 147.093C221.032 147.876 221.451 148.499 222.051 148.964C222.657 149.437 223.386 149.771 224.238 149.966C225.089 150.16 225.887 150.175 226.632 150.01C227.375 149.851 228.016 149.466 228.557 148.853C229.104 148.243 229.51 147.359 229.774 146.203L230.807 141.674L211.821 137.341L212.409 134.765Z" fill="black"/>
<path d="M204.021 161.524L222.916 172.433L216.332 183.837L214.302 182.665L219.565 173.55L213.18 169.864L208.259 178.388L206.229 177.217L211.151 168.692L204.729 164.984L199.381 174.247L197.352 173.075L204.021 161.524Z" fill="black"/>
<path d="M188.857 183.712L203.697 199.706L198.293 204.72C197.044 205.879 195.82 206.618 194.622 206.935C193.429 207.257 192.297 207.227 191.226 206.845C190.154 206.463 189.182 205.801 188.307 204.859C187.433 203.917 186.85 202.902 186.559 201.816C186.268 200.73 186.328 199.609 186.738 198.453C187.153 197.302 187.98 196.152 189.219 195.003L193.592 190.945L195.215 192.694L190.904 196.694C190.051 197.486 189.479 198.249 189.191 198.982C188.897 199.72 188.845 200.426 189.036 201.102C189.226 201.788 189.619 202.451 190.213 203.091C190.807 203.731 191.446 204.18 192.13 204.437C192.814 204.693 193.54 204.708 194.307 204.48C195.079 204.258 195.897 203.746 196.762 202.944L200.167 199.785L186.921 185.509L188.857 183.712ZM187.995 197.882L177.393 194.349L179.642 192.262L190.182 195.853L187.995 197.882Z" fill="black"/>
</svg>
